<svg width="64.69" height="75.19" xmlns="http://www.w3.org/2000/svg"><g><path d="m32.07 19.42.06-.31.33-.38 14.63-8.64.4-.11.4.11.3.29.11.4-.03 16.8.11.41.29.29 14.83 8.45.67.06.47-.47.05-.29-.09-16.74v-.03l-.39-.66L32.52.11l-.4-.11-.4.11L.89 18.13l-.3.3-.07.6.37.48L30.9 36.84l.7.04.47-.52.03-.22-.03-16.72M-97.92 6.81l-.37.12-.24.31-16.19 47.59-.21.29-.34.14-.4-.1-.26-.33-16.32-47.56-.23-.31-.38-.12-11.53-.02-.53.27-.08.59 22.04 60.35.33.36.27.06h13.84l.37-.12.23-.3 22.07-60.34.03-.11-.15-.52-.48-.23-11.47-.02m31.91.52-.16-.39-.39-.16H-77.1l-.39.16-.16.39v60.58l.16.39.39.16h10.54l.39-.16.16-.39V7.33M86.68 29.28l1.33-2.5 1.73-2.31 2.16-2.14 2.46-1.82 2.63-1.43 2.78-1.03 2.76-.55 2.78-.08 1.9.24 1.74.45 2.39 1.04 2.32 1.54 2.4 2.14 2.96 3.14.45.33.55.11h12.08l.11-.01.38-.29.02-.48-2.3-4.37-2.86-3.91-3.27-3.3-3.76-2.77-2.43-1.34-2.51-1.11-2.68-.89-2.74-.63-2.8-.39-2.83-.13-2.83.12-2.8.36-2.76.61-2.7.86-2.62 1.09-2.51 1.32-2.37 1.53-2.23 1.75-2 1.9-1.84 2.1-2.65 3.92-2 4.25-1.39 4.7-.72 4.94-.09 2.56.13 2.54.34 2.51.54 2.47.75 2.45.95 2.39 1.13 2.29 1.31 2.19 1.47 2.05 1.63 1.93 1.77 1.77 1.93 1.62 2.03 1.43 2.16 1.24 2.18 1.01 2.29.82 3.16.83 3.13.54 3.09.25 3.04-.03 3.02-.31 2.95-.6 2.85-.88 2.74-1.15 2.36-1.27 2.25-1.48 2.13-1.7 2.01-1.91 1.86-2.1 1.71-2.31 1.5-2.41 1.35-2.6.05-.13-.13-.54-.5-.24-12.67.06-.46.12-.34.33-1.36 1.96-1.51 1.71-1.66 1.45-1.8 1.19-3.27 1.4-3.67.7-2.13.08-2.03-.14-2.02-.39-1.91-.61-1.77-.8-1.64-.98-1.6-1.22-1.45-1.38-1.33-1.58-1.17-1.71-1.83-3.75-1.13-4.13-.28-2.14-.07-2.16.12-2.14.33-2.12.52-2 .71-1.94M-41.58 45.41l.31-.74.74-.28h.05l5.52.33 4.75-.04 4.29-.4 3.89-.79 2.2-.73 2-.94 1.88-1.19 1.66-1.38 1.29-1.37 1.12-1.49 1-1.68.8-1.76.62-1.87.42-1.93.26-3.93-.52-3.92-.55-1.9-.74-1.84-.92-1.72-1.11-1.62-1.22-1.44-1.39-1.3-2.31-1.65-2.67-1.3-1.89-.55-2.47-.4-6.7-.37-21.39-.25-.35.14-.15.36-.02 60.47.13.39.38.13 10.51.01.65-.21.21-.66-.28-22.18m261.03-.24 12.63-.51 2.87-.23 2.71-.55 2.61-.89 2.39-1.2 2.17-1.49 1.89-1.76 1.61-1.99 1.29-2.2 1.18-3.19.55-3.47-.13-3.53-.82-3.69-1.36-3.24-1.94-2.8-1.37-1.38-1.53-1.19-1.76-1.06-1.9-.89-2.2-.77-2.33-.61-5.47-.84-6.81-.44-6.79.02-4.89.3-4.89.54-.38.2-.15.4.02 59.05.2.5.5.21 10.44.05.77-.25.25-.76-.06-21.57.18-.55.52-.22m153.43 11.56.41.29 3.91 11.15.4.29 11.79.04.35-.18.05-.4L368.1 7.89l-.4-.28-13.53.02-.4.28-21.74 59.99.05.39.35.18 11.87.04.32-.14.09-.16 3.65-11.16.15-.21.26-.09 24.11-.02m38.32 2.5-.38-.14-.21-.34-.01-.12-.01-50.49-.18-.42-.42-.18-10.81.06-.42.17-.18.41v59.68l.18.42.42.18 31.05.03.44-.18.16-.43-.07-8.15-.18-.42-.43-.18-18.95.1m-230.35-2.46.5.35 3.88 11.04.03.08.47.27 11.59-.01h.02l.42-.24.05-.47-21.61-59.8-.5-.35-13.41.01-.5.35-21.63 59.8.03.43.33.26.13.02 11.6.01.49-.34.01-.02 3.67-11.02.19-.26.31-.1 23.93-.01m91.42-48.63-.15-.35-.35-.15h-10.98l-.35.15-.15.35v59.88l.15.35.35.15h10.98l.35-.15.15-.35V8.14m37.56 9.98.28-.68.69-.28 14.29.08.62-.22.33-.57.02-.15.12-7.67-.22-.63-.57-.34-.17-.01h-42.71l-.69.28-.27.69.03 7.52.29.68.67.28 14.37.1.62.24.33.72-.08 49.33.04.26.34.51.58.2 10.15.06h.07l.64-.3.26-.66-.03-49.44M16.33 64.42l-.01-16.33-.25-.92-.67-.67-14.17-8.15-.15-.06-.54.1-.25.5L0 56.18l.09.37.27.28 14.1 8.23.38.14.34-.01.56-.03.41.16.32.58.2.45.36.32 14.37 8.29.85.23.84-.23 30.19-17.52.25-.19.27-.47.03-.56-.23-.54-.43-.39-29.66-17.31-.48-.15-.49.08-.41.29-.24.44-.04.29v17l-.09.36-.26.26-14.16 8.44-.16.07-.58-.11-.27-.53"/><path d="m-41.53 17.78-.12 16.1.34.83.83.35 10.36.07 1.76-.16 1.7-.49 1.57-.81 1.38-1.09 1.14-1.33.84-1.53.53-1.65.19-1.73v-.74l-.16-1.73-.5-1.66-.83-1.54-1.11-1.34-1.37-1.11-1.56-.83-1.69-.52-1.77-.18-10.36-.07-.76.28-.4.71-.01.17m260.31.34-.12 16.48.22.55.55.22 10.6.08 1.72-.16 1.66-.48 1.53-.79 1.35-1.07 1.11-1.31.82-1.49.52-1.63.18-1.69v-.66l-.16-1.69-.49-1.64-.8-1.5-1.09-1.33-1.33-1.08-1.52-.82-1.66-.5-1.72-.18-10.6-.07-.2.02-.41.27-.16.47m133.08 28.44.03.58.29.34.43.13 16.52-.06.54-.21.25-.52-.05-.32-8.34-23.72-.38-.44-.66-.03-.45.48-8.18 23.77m-191.79.19-.03.17.17.49.47.2 16.75.03.44-.17.21-.43-.04-.26-8.33-24.16-.36-.39-.51.01-.36.38-8.41 24.13"/></g><path fill="#5aa1ff" d="m16.33 64.42.27.53.58.11.16-.07 14.16-8.44.26-.26.09-.36v-17l.04-.29.24-.44.41-.29.49-.08.48.15 29.66 17.31.43.39.23.54-.03.56-.27.47-.25.19-30.19 17.52-.84.23-.85-.23-14.37-8.29-.36-.32-.2-.45-.32-.58-.41-.16-.56.03-.34.01-.38-.14-14.1-8.23-.27-.28-.09-.37.29-17.29.25-.5.54-.1.15.06L15.4 46.5l.67.67.25.92z"/><path fill="#f07f3d" d="m32.07 19.42.03 16.72-.27.6-.45.2-.48-.1L.89 19.51l-.29-.29-.11-.4.11-.4.29-.29L31.72.11l.4-.11.4.11L64.21 18.6l.29.29.1.4.09 16.74-.32.65-.43.16-.44-.11-14.83-8.45-.3-.3-.1-.4.03-16.8-.12-.42-.49-.35-.6.08-14.63 8.64-.28.29z"/></svg>