<svg width="76" height="76" xmlns="http://www.w3.org/2000/svg"><path fill="#5aa1ff" d="m22.33 64.42.27.53.58.11.16-.07 14.16-8.44.26-.26.09-.36v-17l.04-.29.24-.44.41-.29.49-.08.48.15 29.66 17.31.43.39.23.54-.03.56-.27.47-.25.19-30.19 17.52-.84.23-.85-.23-14.37-8.29-.36-.32-.2-.45-.32-.58-.41-.16-.56.03-.34.01-.38-.14-14.1-8.23-.27-.28-.09-.37.29-17.29.25-.5.54-.1.15.06L21.4 46.5l.67.67.25.92z"/><path fill="#f07f3d" d="m38.07 19.42.03 16.72-.27.6-.45.2-.48-.1L6.89 19.51l-.29-.29-.11-.4.11-.4.29-.29L37.72.11l.4-.11.4.11L70.21 18.6l.29.29.1.4.09 16.74-.32.65-.43.16-.44-.11-14.83-8.45-.3-.3-.1-.4.03-16.8-.12-.42-.49-.35-.6.08-14.63 8.64-.28.29z"/></svg>