<svg viewBox="0 0 600 83" xmlns="http://www.w3.org/2000/svg"><g stroke-width="2" fill="none"><path d="m187.97 22.47.06-.31.33-.38 14.63-8.64.4-.11.4.11.3.29.11.4-.03 16.8.11.41.29.29 14.83 8.45.67.06.47-.47.05-.29-.09-16.74v-.03l-.39-.66-31.69-18.49-.4-.11-.4.11-30.83 18.02-.3.3-.07.6.37.48 30.01 17.33.7.04.47-.52.03-.22-.03-16.72"/><path d="m57.98 9.86-.37.12-.24.31-16.19 47.59-.21.29-.34.14-.4-.1-.26-.33-16.32-47.56-.23-.31-.38-.12-11.53-.02-.53.27-.08.59 22.04 60.35.33.36.27.06h13.84l.37-.12.23-.3 22.07-60.34.03-.11-.15-.52-.48-.23-11.47-.02M89.89 10.38l-.16-.39-.39-.16H78.8l-.39.16-.16.39v60.58l.16.39.39.16h10.54l.39-.16.16-.39V10.38M242.58 32.33l1.33-2.5 1.73-2.31 2.16-2.14 2.46-1.82 2.63-1.43 2.78-1.03 2.76-.55 2.78-.08 1.9.24 1.74.45 2.39 1.04 2.32 1.54 2.4 2.14 2.96 3.14.45.33.55.11H288l.11-.01.38-.29.02-.48-2.3-4.37-2.86-3.91-3.27-3.3-3.76-2.77-2.43-1.34-2.51-1.11-2.68-.89-2.74-.63-2.8-.39-2.83-.13-2.83.12-2.8.36-2.76.61-2.7.86-2.62 1.09-2.51 1.32-2.37 1.53-2.23 1.75-2 1.9-1.84 2.1-2.65 3.92-2 4.25-1.39 4.7-.72 4.94-.09 2.56.13 2.54.34 2.51.54 2.47.75 2.45.95 2.39 1.13 2.29 1.31 2.19 1.47 2.05 1.63 1.93 1.77 1.77 1.93 1.62 2.03 1.43 2.16 1.24 2.18 1.01 2.29.82 3.16.83 3.13.54 3.09.25 3.04-.03 3.02-.31 2.95-.6 2.85-.88 2.74-1.15 2.36-1.27 2.25-1.48 2.13-1.7 2.01-1.91 1.86-2.1 1.71-2.31 1.5-2.41 1.35-2.6.05-.13-.13-.54-.5-.24-12.67.06-.46.12-.34.33-1.36 1.96-1.51 1.71-1.66 1.45-1.8 1.19-3.27 1.4-3.67.7-2.13.08-2.03-.14-2.02-.39-1.91-.61-1.77-.8-1.64-.98-1.6-1.22-1.45-1.38-1.33-1.58-1.17-1.71-1.83-3.75-1.13-4.13-.28-2.14-.07-2.16.12-2.14.33-2.12.52-2 .71-1.94M114.32 48.46l.31-.74.74-.28h.05l5.52.33 4.75-.04 4.29-.4 3.89-.79 2.2-.73 2-.94 1.88-1.19 1.66-1.38 1.29-1.37 1.12-1.49 1-1.68.8-1.76.62-1.87.42-1.93.26-3.93-.52-3.92-.55-1.9-.74-1.84-.92-1.72-1.11-1.62-1.22-1.44-1.39-1.3-2.31-1.65-2.67-1.3-1.89-.55-2.47-.4-6.7-.37-21.39-.25-.35.14-.15.36-.02 60.47.13.39.38.13 10.51.01.65-.21.21-.66-.28-22.18M375.35 48.22l12.63-.51 2.87-.23 2.71-.55 2.61-.89 2.39-1.2 2.17-1.49 1.89-1.76 1.61-1.99 1.29-2.2 1.18-3.19.55-3.47-.13-3.53-.82-3.69-1.36-3.24-1.94-2.8-1.37-1.38-1.53-1.19-1.76-1.06-1.9-.89-2.2-.77-2.33-.61-5.47-.84-6.81-.44-6.79.02-4.89.3-4.89.54-.38.2-.15.4.02 59.05.2.5.5.21 10.44.05.77-.25.25-.76-.06-21.57.18-.55.52-.22M528.78 59.78l.41.29 3.91 11.15.4.29 11.79.04.35-.18.05-.4L524 10.94l-.4-.28-13.53.02-.4.28-21.74 59.99.05.39.35.18 11.87.04.32-.14.09-.16 3.65-11.16.15-.21.26-.09 24.11-.02M567.1 62.28l-.38-.14-.21-.34-.01-.12-.01-50.49-.18-.42-.42-.18-10.81.06-.42.17-.18.41v59.68l.18.42.42.18 31.05.03.44-.18.16-.43-.07-8.15-.18-.42-.43-.18-18.95.1M336.75 59.82l.5.35 3.88 11.04.03.08.47.27 11.59-.01h.02l.42-.24.05-.47-21.61-59.8-.5-.35-13.41.01-.5.35-21.63 59.8.03.43.33.26.13.02 11.6.01.49-.34.01-.02 3.67-11.02.19-.26.31-.1 23.93-.01M428.17 11.19l-.15-.35-.35-.15h-10.98l-.35.15-.15.35v59.88l.15.35.35.15h10.98l.35-.15.15-.35V11.19M465.73 21.17l.28-.68.69-.28 14.29.08.62-.22.33-.57.02-.15.12-7.67-.22-.63-.57-.34-.17-.01h-42.71l-.69.28-.27.69.03 7.52.29.68.67.28 14.37.1.62.24.33.72-.08 49.33.04.26.34.51.58.2 10.15.06h.07l.64-.3.26-.66-.03-49.44"/><path d="m172.23 67.47-.01-16.33-.25-.92-.67-.67-14.17-8.15-.15-.06-.54.1-.25.5-.29 17.29.09.37.27.28 14.1 8.23.38.14.34-.01.56-.03.41.16.32.58.2.45.36.32 14.37 8.29.85.23.84-.23 30.19-17.52.25-.19.27-.47.03-.56-.23-.54-.43-.39-29.66-17.31-.48-.15-.49.08-.41.29-.24.44-.04.29v17l-.09.36-.26.26-14.16 8.44-.16.07-.58-.11-.27-.53"/><path d="m114.37 20.83-.12 16.1.34.83.83.35 10.36.07 1.76-.16 1.7-.49 1.57-.81 1.38-1.09 1.14-1.33.84-1.53.53-1.65.19-1.73v-.74l-.16-1.73-.5-1.66-.83-1.54-1.11-1.34-1.37-1.11-1.56-.83-1.69-.52-1.77-.18-10.36-.07-.76.28-.4.71-.01.17M374.68 21.17l-.12 16.48.22.55.55.22 10.6.08 1.72-.16 1.66-.48 1.53-.79 1.35-1.07 1.11-1.31.82-1.49.52-1.63.18-1.69v-.66l-.16-1.69-.49-1.64-.8-1.5-1.09-1.33-1.33-1.08-1.52-.82-1.66-.5-1.72-.18-10.6-.07-.2.02-.41.27-.16.47M507.76 49.61l.03.58.29.34.43.13 16.52-.06.54-.21.25-.52-.05-.32-8.34-23.72-.38-.44-.66-.03-.45.48-8.18 23.77M315.97 49.8l-.03.17.17.49.47.2 16.75.03.44-.17.21-.43-.04-.26-8.33-24.16-.36-.39-.51.01-.36.38-8.41 24.13"/></g><path d="m57.98 9.86 11.47.02.52.27.08.59-22.07 60.34-.2.28-.4.14H33.54l-.35-.1-.25-.32L10.9 10.73l.08-.59.53-.27 11.53.02.38.12.23.31 16.32 47.56.27.33.41.1.53-.43 16.19-47.59.24-.31z" fill="#fff"/><rect x="78.25" y="9.83" width="11.64" height="61.68" rx=".55" fill="#fff"/><path d="m242.58 32.33-.71 1.94-.52 2-.33 2.12-.12 2.14.07 2.16.28 2.14 1.13 4.13 1.83 3.75 1.17 1.71 1.33 1.58 1.45 1.38 1.6 1.22 1.64.98 1.77.8 1.91.61 2.02.39 2.03.14 2.13-.08 3.67-.7 3.27-1.4 1.8-1.19 1.66-1.45 1.51-1.71 1.36-1.96.34-.33.46-.12 12.67-.06.5.24.13.54-.05.13-1.35 2.6-1.5 2.41-1.71 2.31-1.86 2.1-2.01 1.91-2.13 1.7-2.25 1.48-2.36 1.27-2.74 1.15-2.85.88-2.95.6-3.02.31-3.04.03-3.09-.25-3.13-.54-3.16-.83-2.29-.82-2.18-1.01-2.16-1.24-2.03-1.43-1.93-1.62-1.77-1.77-1.63-1.93-1.47-2.05-1.31-2.19-1.13-2.29-.95-2.39-.75-2.45-.54-2.47-.34-2.51-.13-2.54.09-2.56.72-4.94 1.39-4.7 2-4.25 2.65-3.92 1.84-2.1 2-1.9 2.23-1.75 2.37-1.53 2.51-1.32 2.62-1.09 2.7-.86 2.76-.61 2.8-.36 2.83-.12 2.83.13 2.8.39 2.74.63 2.68.89 2.51 1.11 2.43 1.34 3.76 2.77 3.27 3.3 2.86 3.91 2.3 4.37-.02.48-.38.29-.11.01h-12.08l-.55-.11-.45-.33-2.96-3.14-2.4-2.14-2.32-1.54-2.39-1.04-1.74-.45-1.9-.24-2.78.08-2.76.55-2.78 1.03-2.63 1.43-2.46 1.82-2.16 2.14-1.73 2.31zM114.32 48.46l.28 22.18-.21.66-.65.21-10.51-.01-.38-.13-.13-.39.02-60.47.15-.36.35-.14 21.39.25 6.7.37 2.47.4 1.89.55 2.67 1.3 2.31 1.65 1.39 1.3 1.22 1.44 1.11 1.62.92 1.72.74 1.84.55 1.9.52 3.92-.26 3.93-.42 1.93-.62 1.87-.8 1.76-1 1.68-1.12 1.49-1.29 1.37-1.66 1.38-1.88 1.19-2 .94-2.2.73-3.89.79-4.29.4-4.75.04-5.52-.33h-.05l-.74.28zm.05-27.63-.12 16.1.34.83.83.35 10.36.07 1.76-.16 1.7-.49 1.57-.81 1.38-1.09 1.14-1.33.84-1.53.53-1.65.19-1.73v-.74l-.16-1.73-.5-1.66-.83-1.54-1.11-1.34-1.37-1.11-1.56-.83-1.69-.52-1.77-.18-10.36-.07-.76.28-.4.71zM374.65 48.99l.06 21.57-.25.76-.77.25-10.44-.05-.5-.21-.2-.5-.02-59.05.15-.4.38-.2 4.89-.54 4.89-.3 6.79-.02 6.81.44 5.47.84 2.33.61 2.2.77 1.9.89 1.76 1.06 1.53 1.19 1.37 1.38 1.94 2.8 1.36 3.24.82 3.69.13 3.53-.55 3.47-1.18 3.19-1.29 2.2-1.61 1.99-1.89 1.76-2.17 1.49-2.39 1.2-2.61.89-2.71.55-2.87.23-12.63.51-.52.22zm.03-27.82-.12 16.48.22.55.55.22 10.6.08 1.72-.16 1.66-.48 1.53-.79 1.35-1.07 1.11-1.31.82-1.49.52-1.63.18-1.69v-.66l-.16-1.69-.49-1.64-.8-1.5-1.09-1.33-1.33-1.08-1.52-.82-1.66-.5-1.72-.18-10.6-.07-.2.02-.41.27zM528.78 59.78l-24.11.02-.33.15-.08.15-3.65 11.16-.15.21-.26.09-11.87-.04-.35-.18-.05-.39 21.74-59.99.06-.11.34-.17 13.53-.02.21.06.19.22 21.69 60.03-.05.4-.35.18-11.79-.04-.4-.29-3.91-11.15-.32-.28zm-21.02-10.17.03.58.29.34.43.13 16.52-.06.54-.21.25-.52-.05-.32-8.34-23.72-.38-.44-.66-.03-.45.48zM567.1 62.28l18.95-.1.35.11.26.49.07 8.15-.17.43-.43.18-31.05-.03-.33-.1-.27-.5V11.25l.06-.27.54-.33 10.81-.06.34.11.26.49.01 50.49.18.42zM336.75 59.82l-23.93.01-.31.1-.19.26-3.67 11.02-.11.19-.39.17-11.6-.01h-.06l-.39-.25-.04-.46 21.63-59.8.5-.35 13.41-.01.5.35 21.61 59.8-.06.48-.43.23-11.59.01-.5-.35-3.88-11.04zM315.97 49.8l-.03.17.17.49.47.2 16.75.03.44-.17.21-.43-.04-.26-8.33-24.16-.36-.39-.51.01-.36.38z" fill="#fff"/><rect x="416.19" y="10.69" width="11.98" height="60.88" rx=".5" fill="#fff"/><path d="m465.73 21.17.03 49.44-.28.68-.69.28-10.15-.06-.68-.29-.28-.68.08-49.33-.28-.67-.67-.29-14.37-.1-.68-.29-.28-.67-.03-7.52.27-.69.69-.28h42.71l.54.16.31.35.11.47-.12 7.67-.18.54-.35.3-.44.1-14.29-.08-.69.28z" fill="#fff"/><path fill="#5aa1ff" d="m172.23 67.47.27.53.58.11.16-.07 14.16-8.44.26-.26.09-.36v-17l.04-.29.24-.44.41-.29.49-.08.48.15 29.66 17.31.43.39.23.54-.03.56-.27.47-.25.19-30.19 17.52-.84.23-.85-.23-14.37-8.29-.36-.32-.2-.45-.32-.58-.41-.16-.56.03-.34.01-.38-.14-14.1-8.23-.27-.28-.09-.37.29-17.29.25-.5.54-.1.15.06 14.17 8.15.67.67.25.92.01 16.33z"/><path fill="#f07f3d" d="m187.97 22.47.03 16.72-.27.6-.45.2-.48-.1-30.01-17.33-.29-.29-.11-.4.11-.4.29-.29 30.83-18.02.4-.11.4.11 31.69 18.49.29.29.1.4.09 16.74-.32.65-.43.16-.44-.11-14.83-8.45-.3-.3-.1-.4.03-16.8-.12-.42-.49-.35-.6.08-14.63 8.64-.28.29-.11.4z"/></svg>